<svg width="100%" height="100%" viewBox="0 0 8000 8000" version="1.1" xmlns="http://www.w3.org/2000/svg" xmlns:xlink="http://www.w3.org/1999/xlink" xml:space="preserve" xmlns:serif="http://www.serif.com/" style="fill-rule:evenodd;clip-rule:evenodd;stroke-linecap:round;stroke-linejoin:round;stroke-miterlimit:2;">
	<g id="dark">
		<path d="M8000,4000c0,-2207.66 -1792.34,-4000 -4000,-4000c-2207.66,0 -4000,1792.34 -4000,4000c0,2207.66 1792.34,4000 4000,4000c2207.66,0 4000,-1792.34 4000,-4000Z" style="fill:#151618;" />
		<g id="graph">
			<g id="links">
				<g>
					<path d="M4000,3310.3c-199.968,278.954 -382.582,469.791 -676.01,651.473" style="fill-opacity:0;fill-rule:nonzero;stroke:#eceff4;stroke-width:41.67px;" />
					<path d="M3209.76,3911.62l-33.813,145.931l148.041,33.332" style="fill-opacity:0;fill-rule:nonzero;stroke:#eceff4;stroke-width:41.67px;" />
				</g>
				<g>
					<path d="M3020.42,3853.48c199.968,-278.954 378.892,-469.68 672.319,-651.361" style="fill-opacity:0;fill-rule:nonzero;stroke:#eceff4;stroke-width:41.67px;stroke-linejoin:miter;stroke-dasharray:208.33,166.67,0,0;" />
					<path d="M3810.66,3252.16l33.814,-145.932l-148.041,-33.332" style="fill-opacity:0;fill-rule:nonzero;stroke:#eceff4;stroke-width:41.67px;" />
				</g>
				<g>
					<path d="M3294.49,4759.16c413.145,27.292 725.881,96.103 1096.75,280.198" style="fill-opacity:0;fill-rule:nonzero;stroke:#eceff4;stroke-width:41.67px;" />
					<path d="M4379.9,5172.43l162.709,-54.759l-54.76,-162.709" style="fill-opacity:0;fill-rule:nonzero;stroke:#eceff4;stroke-width:41.67px;" />
				</g>
			</g>
			<g id="nodes">
				<g id="_1" serif:id="1">
					<g>
						<g>
							<g>
								<path d="M3776.21,2623.37c-51.648,-90.038 -51.648,-200.719 0,-290.752c82.602,-143.986 208.415,-363.305 291.293,-507.78c52.084,-90.787 148.752,-146.775 253.418,-146.775l579.356,-0c104.666,-0 201.335,55.988 253.418,146.775c82.879,144.475 208.691,363.794 291.293,507.78c51.648,90.033 51.648,200.714 0,290.752c-82.602,143.985 -208.414,363.304 -291.293,507.775c-52.083,90.788 -148.752,146.78 -253.418,146.78l-579.356,-0c-104.666,-0 -201.334,-55.992 -253.418,-146.78c-82.878,-144.471 -208.691,-363.79 -291.293,-507.775Z" style="fill:#9575cd;fill-rule:nonzero;" />
							</g>
						</g>
					</g>
				</g>
				<g id="_2" serif:id="2">
					<g>
						<g>
							<g>
								<path d="M1497.8,4728.08c-51.648,-90.037 -51.648,-200.719 -0,-290.752c82.601,-143.985 208.414,-363.304 291.292,-507.78c52.084,-90.787 148.753,-146.775 253.419,-146.775l579.356,0c104.665,0 201.334,55.988 253.418,146.775c82.878,144.476 208.691,363.795 291.293,507.78c51.648,90.033 51.648,200.715 -0,290.752c-82.602,143.986 -208.415,363.304 -291.293,507.776c-52.084,90.787 -148.753,146.779 -253.418,146.779l-579.356,0c-104.666,0 -201.335,-55.992 -253.419,-146.779c-82.878,-144.472 -208.691,-363.79 -291.292,-507.776Z" style="fill:#9575cd;fill-rule:nonzero;" />
							</g>
						</g>
					</g>
				</g>
				<g id="_3" serif:id="3">
					<g>
						<g>
							<g>
								<path d="M4501.52,5704.47c-51.648,-90.038 -51.648,-200.719 0,-290.753c82.602,-143.985 208.415,-363.304 291.293,-507.779c52.084,-90.788 148.752,-146.776 253.418,-146.776l579.356,0c104.666,0 201.335,55.988 253.418,146.776c82.879,144.475 208.691,363.794 291.293,507.779c51.648,90.034 51.648,200.715 0,290.753c-82.602,143.985 -208.414,363.304 -291.293,507.775c-52.083,90.787 -148.752,146.78 -253.418,146.78l-579.356,-0c-104.666,-0 -201.334,-55.993 -253.418,-146.78c-82.878,-144.471 -208.691,-363.79 -291.293,-507.775Z" style="fill:#9575cd;fill-rule:nonzero;" />
							</g>
						</g>
					</g>
				</g>
			</g>
		</g>
	</g>
</svg>