<?xml version="1.0" encoding="utf-8"?>
<!-- Generator: Adobe Illustrator 25.4.1, SVG Export Plug-In . SVG Version: 6.00 Build 0)  -->
<svg version="1.1" id="Ebene_1" xmlns="http://www.w3.org/2000/svg" xmlns:xlink="http://www.w3.org/1999/xlink" x="0px" y="0px" viewBox="0 0 1011.7 884.5" style="enable-background:new 0 0 1011.7 884.5;" xml:space="preserve">
	<style type="text/css">
	.st0{fill:#FFFFFF;}
	.st1{fill:#B3B3B3;}
	.st2{fill:#FF6376;}
	.st3{font-family:'Roboto-Light';}
	.st4{font-size:118px;}
	.st5{font-family:'Roboto-Medium';}
	.st6{font-size:45.36px;}
</style>
	<g id="person-hexagon">
		<path class="st0" d="M268.6,884c-11,0-21.2-5.9-26.8-15.5L4.6,457.7c-5.5-9.6-5.5-21.3,0-30.9L241.9,16
		c5.5-9.6,15.7-15.5,26.8-15.5H743c11,0,21.2,5.9,26.8,15.5L1007,426.8c5.5,9.6,5.5,21.3,0,30.9L769.8,868.6
		c-5.5,9.5-15.7,15.4-26.8,15.4H268.6z" />
		<path class="st1" d="M743,1c10.9,0,20.9,5.8,26.3,15.2l237.2,410.9c5.4,9.4,5.4,21,0,30.4L769.4,868.3
		c-5.4,9.4-15.5,15.2-26.3,15.2H268.6c-10.9,0-20.9-5.8-26.3-15.2L5.1,457.5c-5.4-9.4-5.4-21,0-30.4L242.3,16.2
		C247.7,6.8,257.8,1,268.6,1H743 M743,0H268.6c-11.2,0-21.6,6-27.2,15.7L4.2,426.6c-5.6,9.7-5.6,21.7,0,31.4l237.2,410.9
		c5.6,9.7,16,15.7,27.2,15.7H743c11.2,0,21.6-6,27.2-15.7L1007.5,458c5.6-9.7,5.6-21.7,0-31.4L770.2,15.7C764.6,6,754.3,0,743,0z" />
		<path class="st2" d="M739.1,0H271.5c-13.3,0-25.6,7.1-32.3,18.6L125.5,215.5c117.5,11.1,245.6,17.2,379.8,17.2
		s262.3-6.1,379.8-17.2L771.4,18.6C764.7,7.1,752.4,0,739.1,0z" />
		<text transform="matrix(1 0 0 1 438.86 400.56)" class="st3 st4">LS</text>
		<path class="st2" d="M391.9,666.6h227.5c15.5,0,28,12.5,28,28v14.6c0,15.5-12.5,28-28,28H391.9c-15.5,0-28-12.5-28-28v-14.6
		C363.9,679.1,376.4,666.6,391.9,666.6z" />
		<text transform="matrix(1 0 0 1 428.52 715.12)" class="st0 st5 st6">atmend</text>
		<path class="st2" d="M618.1,575.9h227.5c15.5,0,28,12.5,28,28v14.6c0,15.5-12.5,28-28,28H618.1c-15.5,0-28-12.5-28-28v-14.6
		C590.1,588.4,602.6,575.9,618.1,575.9z" />
		<text transform="matrix(1 0 0 1 642.58 624.4)" class="st0 st5 st6">Diabetes</text>
		<path class="st2" d="M165.7,575.9h383.7c15.5,0,28,12.5,28,28v14.6c0,15.5-12.5,28-28,28H165.7c-15.5,0-28-12.5-28-28v-14.6
		C137.7,588.4,150.3,575.9,165.7,575.9z" />
		<text transform="matrix(1 0 0 1 217.6 624.4)" class="st0 st5 st6">Puls schwach</text>
		<path class="st2" d="M112.2,485.1h277.9c15.5,0,28,12.5,28,28v14.6c0,15.5-12.5,28-28,28H112.2c-15.5,0-28-12.5-28-28v-14.6
		C84.2,497.7,96.7,485.1,112.2,485.1z" />
		<text transform="matrix(1 0 0 1 135.38 533.68)" class="st0 st5 st6">bewusstlos</text>
		<path class="st2" d="M458.7,485.1h440.4c15.5,0,28,12.5,28,28v14.6c0,15.5-12.5,28-28,28H458.7c-15.5,0-28-12.5-28-28v-14.6
		C430.7,497.7,443.2,485.1,458.7,485.1z" />
		<text transform="matrix(1 0 0 1 510.2 533.68)" class="st0 st5 st6">V</text>
		<text transform="matrix(1 0 0 1 538.57 533.68)" class="st0 st5 st6">erletzung: </text>
		<text transform="matrix(1 0 0 1 752.15 533.68)" class="st0 st5 st6">K</text>
		<text transform="matrix(1 0 0 1 780.15 533.68)" class="st0 st5 st6">opf</text>
	</g>
</svg>