<svg xmlns="http://www.w3.org/2000/svg" viewBox="0 0 1011.67 884.54">
	<defs>
		<style>
			.cls-1{
				fill:#fff;
				stroke:#b3b3b3;
				stroke-miterlimit:10;
			}
			.cls-3{
				fill:#ff6376;
				stroke:#b3b3b3;
				stroke-miterlimit:10;
			}
		</style>
	</defs>
	<g id="Ebene_2" data-name="Ebene 2">
		<g id="Ebene_1-2" data-name="Ebene 1">
			<path class="cls-1" d="M268.62,884a31,31,0,0,1-26.76-15.45L4.64,457.72a31,31,0,0,1,0-30.9L241.86,16A31,31,0,0,1,268.62.5H743.05A31,31,0,0,1,769.81,16L1007,426.82a31,31,0,0,1,0,30.9L769.81,868.59A31,31,0,0,1,743.05,884Z" />
			<path class="cls-3" d="M506.08,253.5C643,253.5,774.2,246.6,895.77,234L770.34,16.7A31.4,31.4,0,0,0,743.15,1H268.71a31.38,31.38,0,0,0-27.19,15.7L116.1,233.93C237.75,246.59,369.09,253.5,506.08,253.5Z" />
		</g>
	</g>
</svg>