<svg width="100%" height="100%" viewBox="0 0 1012 885" version="1.1" xmlns="http://www.w3.org/2000/svg" xmlns:xlink="http://www.w3.org/1999/xlink" xml:space="preserve" xmlns:serif="http://www.serif.com/" style="fill-rule:evenodd;clip-rule:evenodd;stroke-miterlimit:10;">
    <path d="M268.62,884C257.6,883.979 247.388,878.084 241.86,868.55L4.64,457.72C-0.852,448.166 -0.852,436.374 4.64,426.82L241.86,16C247.375,6.447 257.589,0.531 268.62,0.5L743.05,0.5C754.081,0.531 764.295,6.447 769.81,16L1007,426.82C1012.49,436.374 1012.49,448.166 1007,457.72L769.81,868.59C764.272,878.108 754.062,883.988 743.05,884L268.62,884Z" style="fill:rgb(101,156,164);fill-rule:nonzero;stroke:rgb(179,179,179);stroke-width:1px;"/>
    <path d="M318.483,0C318.483,0 318.407,143.503 318.359,232.359C318.339,270.326 349.059,301.142 387.025,301.241C454.452,301.416 556.745,301.682 624.393,301.858C642.738,301.905 660.344,294.629 673.302,281.644C686.261,268.658 693.501,251.038 693.416,232.692C693,143.517 692.332,0 692.332,0L318.483,0Z" style="fill:rgb(33,104,113);stroke:rgb(33,104,113);stroke-width:1px;stroke-linecap:round;stroke-linejoin:round;stroke-miterlimit:1.5;"/>
</svg>
