<?xml version="1.0" encoding="UTF-8" standalone="no"?>
<!DOCTYPE svg PUBLIC "-//W3C//DTD SVG 1.1//EN" "http://www.w3.org/Graphics/SVG/1.1/DTD/svg11.dtd">
<svg width="100%" height="100%" viewBox="0 0 1920 1920" version="1.1" xmlns="http://www.w3.org/2000/svg" xmlns:xlink="http://www.w3.org/1999/xlink" xml:space="preserve" xmlns:serif="http://www.serif.com/" style="fill-rule:evenodd;clip-rule:evenodd;stroke-linecap:round;stroke-linejoin:round;stroke-miterlimit:2;">
    <g id="dark">
        <path id="light" d="M1920,960C1920,430.162 1489.84,0 960,0C430.162,0 0,430.162 0,960C0,1489.84 430.162,1920 960,1920C1489.84,1920 1920,1489.84 1920,960Z" style="fill:rgb(250,251,253);"/>
        <g id="graph" transform="matrix(2.32874,0,0,2.32874,-33.3443,125.059)">
            <g id="links" transform="matrix(1,0,0,1,503.19,185.616)">
                <g transform="matrix(0.650436,0,0,0.641165,-43.0745,45.9451)">
                    <path d="M-49.247,50.689C-80.932,95.528 -109.866,126.203 -156.359,155.406" style="fill-opacity:0;fill-rule:nonzero;stroke:rgb(140,140,140);stroke-width:6.65px;"/>
                    <g transform="matrix(1.70137,0,0,1.70137,117.891,-113.448)">
                        <path d="M-171.832,153.284L-174.981,167.071L-161.194,170.22" style="fill-opacity:0;fill-rule:nonzero;stroke:rgb(140,140,140);stroke-width:3.91px;"/>
                    </g>
                </g>
                <g transform="matrix(0.650436,0,0,0.641165,-47.7961,33.2137)">
                    <path d="M-197.2,157.857C-165.515,113.019 -137.165,82.362 -90.672,53.158" style="fill-opacity:0;fill-rule:nonzero;stroke:rgb(140,140,140);stroke-width:6.65px;stroke-linejoin:miter;stroke-dasharray:33.25,26.6,0,0;"/>
                    <g transform="matrix(1.70137,0,0,1.70137,54.9585,-32.82)">
                        <path d="M-74.615,55.262L-71.466,41.475L-85.253,38.326" style="fill-opacity:0;fill-rule:nonzero;stroke:rgb(140,140,140);stroke-width:3.91px;"/>
                    </g>
                </g>
                <g transform="matrix(0.630495,0,0,0.630495,-39.9358,88.5967)">
                    <path d="M-171.105,220.729C-103.573,225.19 -52.454,236.438 8.168,266.53" style="fill-opacity:0;fill-rule:nonzero;stroke:rgb(140,140,140);stroke-width:6.81px;"/>
                    <g transform="matrix(1.98428,0,0,1.98428,-26.7803,-270.324)">
                        <path d="M16.679,281.516L30.083,277.005L25.572,263.601" style="fill-opacity:0;fill-rule:nonzero;stroke:rgb(140,140,140);stroke-width:3.43px;"/>
                    </g>
                </g>
            </g>
            <g id="nodes" transform="matrix(1,0,0,1,493.76,182.466)">
                <g transform="matrix(2.64362e-17,-0.431734,0.431734,2.64362e-17,-52.049,494.391)">
                    <path d="M384.617,88.155C406.11,75.826 432.531,75.826 454.023,88.155C488.394,107.873 540.748,137.906 575.236,157.69C596.908,170.123 610.273,193.199 610.273,218.184L610.273,356.483C610.273,381.468 596.908,404.544 575.236,416.977C540.748,436.761 488.394,466.794 454.023,486.512C432.531,498.841 406.11,498.841 384.617,486.512C350.246,466.794 297.892,436.761 263.405,416.977C241.733,404.544 228.367,381.468 228.367,356.483L228.367,218.184C228.367,193.199 241.733,170.123 263.405,157.69C297.892,137.906 350.246,107.873 384.617,88.155Z" style="fill:rgb(149,117,205);fill-rule:nonzero;"/>
                </g>
                <g transform="matrix(2.64362e-17,-0.431734,0.431734,2.64362e-17,-361.613,393.764)">
                    <path d="M384.617,88.155C406.11,75.826 432.531,75.826 454.023,88.155C488.394,107.873 540.748,137.906 575.236,157.69C596.908,170.123 610.273,193.199 610.273,218.184L610.273,356.483C610.273,381.468 596.908,404.544 575.236,416.977C540.748,436.761 488.394,466.794 454.023,486.512C432.531,498.841 406.11,498.841 384.617,486.512C350.246,466.794 297.892,436.761 263.405,416.977C241.733,404.544 228.367,381.468 228.367,356.483L228.367,218.184C228.367,193.199 241.733,170.123 263.405,157.69C297.892,137.906 350.246,107.873 384.617,88.155Z" style="fill:rgb(149,117,205);fill-rule:nonzero;"/>
                </g>
                <g transform="matrix(2.64362e-17,-0.431734,0.431734,2.64362e-17,-126.799,176.853)">
                    <path d="M384.617,88.155C406.11,75.826 432.531,75.826 454.023,88.155C488.394,107.873 540.748,137.906 575.236,157.69C596.908,170.123 610.273,193.199 610.273,218.184L610.273,356.483C610.273,381.468 596.908,404.544 575.236,416.977C540.748,436.761 488.394,466.794 454.023,486.512C432.531,498.841 406.11,498.841 384.617,486.512C350.246,466.794 297.892,436.761 263.405,416.977C241.733,404.544 228.367,381.468 228.367,356.483L228.367,218.184C228.367,193.199 241.733,170.123 263.405,157.69C297.892,137.906 350.246,107.873 384.617,88.155Z" style="fill:rgb(149,117,205);fill-rule:nonzero;"/>
                </g>
            </g>
        </g>
    </g>
</svg>
